<?xml version="1.0" encoding="utf-8"?>
<!-- Generator: Adobe Illustrator 16.0.0, SVG Export Plug-In . SVG Version: 6.00 Build 0)  -->
<!DOCTYPE svg PUBLIC "-//W3C//DTD SVG 1.1//EN" "http://www.w3.org/Graphics/SVG/1.1/DTD/svg11.dtd">
<svg version="1.1" id="Layer_1" xmlns="http://www.w3.org/2000/svg" xmlns:xlink="http://www.w3.org/1999/xlink" x="0px" y="0px"
	 width="104.373px" height="34.985px" viewBox="0 0 104.373 34.985" enable-background="new 0 0 104.373 34.985"
	 xml:space="preserve">
<polygon fill="#133F52" points="31.915,16.605 34.402,16.605 34.402,23.545 36.334,23.545 36.334,16.605 38.816,16.605 
	38.816,14.926 31.915,14.926 31.915,16.605 "/>
<polygon fill="none" stroke="#133F52" stroke-width="0.5" points="31.916,14.979 38.803,14.979 38.803,16.65 36.326,16.65 
	36.326,23.545 34.396,23.545 34.396,16.65 31.916,16.65 "/>
<path fill="#133F52" d="M43.967,14.709c-0.436-0.07-0.858-0.106-1.27-0.106c-0.902,0-1.596,0.231-2.076,0.693
	c-0.482,0.462-0.723,1.122-0.723,1.979c0,0.686,0.173,1.23,0.52,1.635c0.346,0.403,0.893,0.698,1.643,0.883l0.747,0.19
	c0.455,0.115,0.759,0.246,0.91,0.393c0.152,0.146,0.229,0.354,0.229,0.624c0,0.3-0.112,0.53-0.336,0.692
	c-0.224,0.161-0.547,0.242-0.968,0.242c-0.415,0-0.846-0.074-1.292-0.222c-0.446-0.148-0.909-0.369-1.387-0.661v1.876
	c0.478,0.204,0.956,0.357,1.435,0.462c0.478,0.104,0.954,0.155,1.43,0.155c1.006,0,1.754-0.231,2.244-0.695s0.734-1.171,0.734-2.121
	c0-0.724-0.175-1.282-0.526-1.675c-0.351-0.393-0.942-0.685-1.775-0.878l-0.823-0.189c-0.391-0.093-0.66-0.203-0.81-0.332
	c-0.148-0.129-0.224-0.31-0.224-0.54c0-0.308,0.111-0.535,0.332-0.682c0.221-0.146,0.562-0.22,1.022-0.22
	c0.349,0,0.718,0.055,1.108,0.162c0.392,0.107,0.793,0.268,1.204,0.479V15.03C44.851,14.888,44.4,14.781,43.967,14.709
	L43.967,14.709z"/>
<path fill="none" stroke="#133F52" stroke-width="0.5" d="M45.302,15.08v1.812c-0.409-0.208-0.809-0.365-1.199-0.473
	c-0.391-0.109-0.761-0.164-1.109-0.164c-0.459,0-0.799,0.073-1.02,0.219c-0.219,0.146-0.328,0.371-0.328,0.676
	c0,0.232,0.074,0.412,0.223,0.539c0.148,0.128,0.416,0.237,0.805,0.328l0.824,0.191c0.83,0.19,1.42,0.48,1.77,0.871
	c0.352,0.391,0.527,0.945,0.527,1.664c0,0.945-0.245,1.648-0.734,2.109c-0.49,0.461-1.236,0.691-2.238,0.691
	c-0.475,0-0.951-0.053-1.43-0.156c-0.477-0.104-0.953-0.258-1.43-0.461v-1.863c0.477,0.292,0.938,0.512,1.383,0.66
	c0.445,0.146,0.875,0.219,1.289,0.219c0.422,0,0.743-0.08,0.965-0.242c0.224-0.161,0.336-0.391,0.336-0.688
	c0-0.268-0.076-0.475-0.227-0.621c-0.151-0.146-0.455-0.275-0.91-0.391l-0.742-0.188c-0.748-0.185-1.295-0.478-1.641-0.879
	c-0.347-0.4-0.52-0.941-0.52-1.621c0-0.854,0.239-1.51,0.719-1.969c0.481-0.461,1.173-0.691,2.074-0.691
	c0.411,0,0.833,0.037,1.266,0.109C44.389,14.834,44.838,14.939,45.302,15.08L45.302,15.08z"/>
<path fill="#748E99" d="M58.938,23.445h1.899l-2.714-8.812h-2.252l-2.714,8.812h1.899l0.466-1.605h2.954L58.938,23.445
	L58.938,23.445z M56.999,16.699l1.002,3.506h-2.008L56.999,16.699L56.999,16.699z"/>
<path fill="none" stroke="#133F52" stroke-width="0.5" d="M58.452,21.852h-2.941l-0.465,1.594h-1.887l2.699-8.75h2.242l2.699,8.75
	h-1.891L58.452,21.852z M55.979,20.227h1.996l-0.996-3.48L55.979,20.227z"/>
<path fill="#748E99" d="M65.581,14.412c-0.425-0.072-0.839-0.109-1.241-0.109c-0.884,0-1.561,0.236-2.031,0.709
	c-0.472,0.472-0.707,1.146-0.707,2.024c0,0.7,0.17,1.257,0.509,1.67c0.338,0.413,0.873,0.714,1.606,0.903l0.731,0.194
	c0.444,0.118,0.741,0.252,0.891,0.401c0.148,0.149,0.223,0.362,0.223,0.638c0,0.307-0.109,0.543-0.328,0.708
	c-0.22,0.165-0.535,0.248-0.947,0.248c-0.406,0-0.827-0.076-1.264-0.228s-0.889-0.376-1.356-0.676v1.918
	c0.468,0.209,0.936,0.366,1.403,0.473s0.934,0.159,1.398,0.159c0.984,0,1.716-0.237,2.195-0.711
	c0.479-0.475,0.719-1.197,0.719-2.169c0-0.74-0.172-1.311-0.516-1.712c-0.343-0.401-0.922-0.7-1.736-0.896l-0.805-0.195
	c-0.383-0.094-0.646-0.207-0.793-0.34c-0.145-0.131-0.218-0.315-0.218-0.551c0-0.315,0.108-0.547,0.323-0.697
	c0.217-0.149,0.55-0.224,1.002-0.224c0.34,0,0.701,0.055,1.084,0.165s0.775,0.273,1.178,0.49V14.74
	C66.446,14.595,66.007,14.485,65.581,14.412L65.581,14.412z"/>
<path fill="none" stroke="#133F52" stroke-width="0.5" d="M66.873,14.801v1.852c-0.401-0.216-0.792-0.379-1.172-0.488
	C65.32,16.055,64.961,16,64.623,16c-0.451,0-0.784,0.074-1,0.223c-0.214,0.148-0.32,0.379-0.32,0.691
	c0,0.234,0.071,0.418,0.215,0.551c0.146,0.131,0.41,0.242,0.793,0.336l0.801,0.191c0.81,0.195,1.385,0.492,1.727,0.891
	c0.341,0.398,0.512,0.965,0.512,1.699c0,0.967-0.238,1.686-0.715,2.156c-0.477,0.472-1.205,0.707-2.184,0.707
	c-0.464,0-0.929-0.054-1.395-0.16c-0.464-0.106-0.929-0.263-1.395-0.469V20.91c0.466,0.297,0.916,0.521,1.352,0.672
	c0.435,0.151,0.854,0.227,1.258,0.227c0.408,0,0.723-0.082,0.941-0.246s0.328-0.398,0.328-0.703c0-0.273-0.074-0.484-0.223-0.633
	s-0.444-0.281-0.887-0.398l-0.727-0.195c-0.729-0.188-1.264-0.485-1.602-0.895c-0.336-0.411-0.504-0.965-0.504-1.66
	c0-0.869,0.234-1.539,0.703-2.008s1.142-0.703,2.02-0.703c0.4,0,0.812,0.037,1.234,0.109C65.98,14.547,66.42,14.655,66.873,14.801
	L66.873,14.801z"/>
<polygon fill="#748E99" points="69.046,23.445 74.251,23.445 74.251,21.728 70.935,21.728 70.935,19.709 73.952,19.709 
	73.952,17.991 70.935,17.991 70.935,16.351 74.144,16.351 74.144,14.634 69.046,14.634 69.046,23.445 "/>
<polygon fill="none" stroke="#133F52" stroke-width="0.5" points="69.041,14.695 74.115,14.695 74.115,16.402 70.92,16.402 
	70.92,18.031 73.924,18.031 73.924,19.734 70.92,19.734 70.92,21.738 74.221,21.738 74.221,23.445 69.041,23.445 "/>
<path fill="#FF910B" d="M30.166,11.574c0,0.857-0.712,1.554-1.593,1.557c-0.881,0.005-1.601-0.683-1.61-1.539
	c-0.011-0.856,0.692-1.56,1.573-1.574c0.881-0.016,1.609,0.664,1.629,1.521"/>
<text transform="matrix(1 0 0 1 36.5654 5.8257)" font-family="'Helvetica'" font-size="6">‡</text>
<g>
	<g>
		<g>
			
				<line fill="none" stroke="#000000" stroke-width="0.5" stroke-linecap="round" stroke-linejoin="round" x1="30.356" y1="9.622" x2="33.451" y2="6.557"/>
			<g>
				<path d="M33.132,6.873l-1.023-0.254l0.007-0.037l1.455-0.619c0.442-0.28,0.885-0.56,1.328-0.84
					c-0.284,0.44-0.569,0.88-0.853,1.32l-0.633,1.448l-0.032,0.011L33.132,6.873z"/>
			</g>
		</g>
	</g>
</g>
<path fill="none" stroke="#000000" stroke-width="0.9021" d="M3.97,11.389c4.985-7.317,7.763-3.027,10.027,3.091
	c2.265,6.118,4.016,14.065,6.95,14.065c2.792,0,6.025-8.913,10.078-14.991c4.052-6.078,9.923-9.319,15.985,2.024
	c10.33,19.329,19.536,18.099,26.14,11.26C79.752,20,84.729,7.668,89.577,7.668c3.054-0.013,7.197,5.765,10.521,10.997"/>
</svg>
